<svg width="16" height="16" viewBox="0 0 16 16" fill="none" xmlns="http://www.w3.org/2000/svg">
<path d="M15.5 8.65833C15.3689 10.0768 14.8365 11.4287 13.9652 12.5557C13.0939 13.6826 11.9196 14.5382 10.5797 15.0221C9.23992 15.5061 7.78998 15.5984 6.39958 15.2884C5.00918 14.9784 3.73582 14.2788 2.72852 13.2715C1.72121 12.2642 1.02161 10.9908 0.711584 9.60042C0.401557 8.21001 0.493924 6.76007 0.977877 5.42025C1.46183 4.08042 2.31735 2.90614 3.44434 2.03479C4.57132 1.16345 5.92316 0.631088 7.34166 0.5C6.51117 1.62356 6.11153 3.00787 6.21544 4.40118C6.31934 5.79448 6.91988 7.10422 7.90783 8.09217C8.89578 9.08012 10.2055 9.68065 11.5988 9.78456C12.9921 9.88846 14.3764 9.48882 15.5 8.65833V8.65833Z" stroke="white" stroke-linecap="round" stroke-linejoin="round"/>
</svg>
